<?xml version="1.0" encoding="UTF-8"?>
<svg id="Layer_1" data-name="Layer 1" xmlns="http://www.w3.org/2000/svg" viewBox="0 0 4500 6091.63">
  <defs>
    <style>
      .cls-1 {
        fill: #4a4a4b;
      }

      .cls-2 {
        fill: #fff;
      }

      .cls-3 {
        fill: #f7941d;
      }

      .cls-4 {
        fill: #ab5d31;
      }
    </style>
  </defs>
  <path class="cls-2" d="M3716.89,5536.59c-25.12,42.73-78.57,76.54-118.83,106.13C2147.29,6709.3,158.41,5760.9,0,4001.42L.65,0l782.33,381.46v1222.75H254.88v195.64s528.1,0,528.1,0v2027.74c0,280.92,36.08,529.55,146.77,789.42,401.68,943.04,1470.87,1394.23,2440.12,1071.37l347.01-151.79Z"/>
  <path class="cls-2" d="M978.58,469.5s761.19,353.82,761.19,353.82c.26,277.37.53,554.74.79,832.11.48,501.39.95,1002.78,1.43,1504.17.38,398.63-47.73,789.63,137.62,1158.89,140.57,280.05,376.59,507.52,659.35,641.78,404.35,191.99,880.77,177.22,1269.61-46.07,303.25-174.13,638.85-573.49,671.25-933.06,5.1-56.57,20.96-59.31,20.15.58-47.1,581.77-396.33,1122.63-906.5,1402.07-1142.16,625.62-2523.41-155.9-2615.5-1441.06l.61-2142.88h528.1v-195.64h-528.1V469.5Z"/>
  <path class="cls-3" d="M2934.52,4597.51c49.61-64.42,122.44-101.35,176.05-166.27,106.11-128.49,172.02-287.23,194.33-451.24l10.2-2220.1,1008.09-468.68c.42,417.08-.42,834.99.04,1252.07-34.27,602.01-381.27,1313.2-824.7,1730.73-93.33,87.88-410.43,344.94-521.43,333.84-14.4-1.44-28.53-5.51-42.59-10.34Z"/>
  <path class="cls-4" d="M4323.23,2543.29c.45,406.9,31,884.35.6,1282.05-42.77,559.49-536.37,1028.07-1087.46,1083.89-272.49,27.6-511.29-62.34-751.66-174.86l278.71-63.43c58.23-21.13,114.19-50.13,171.1-73.42,707.45-289.54,1105.71-1036.88,1321.05-1740.41l67.66-313.82Z"/>
  <path class="cls-1" d="M3716.89,5536.59l9.78-19.56c16.5,10.13,10.52,20.85-9.78,19.56Z"/>
</svg>